<svg xmlns="http://www.w3.org/2000/svg" xml:space="preserve" width="512mm" height="512mm" viewBox="0 0 512 512"><path fill="#a4801f" d="m249.75771 20.363072-1.46927 7.790178c-1.17612 3.28455-.88277 4.368845-2.05889 7.653424-.88209 4.012245-1.46917 5.185543-2.64529 8.799113-1.76418 5.743346-2.94089 7.94078-3.82298 11.34109-2.9403 7.123141-4.99802 15.283267-7.05623 19.874311-4.11642 7.880179-9.11483 18.240914-14.99543 28.222122-7.35071 12.33309-7.35141 12.53594-12.93798 21.95134-4.70448 6.1763-7.64405 8.13457-12.34853 14.30403-3.82239 5.44544-8.82093 11.7681-12.05526 19.31056-.88209 2.78091-1.47003 4.39443-1.76406 7.83426.29403 11.73644.79049 15.93036 14.6099 26.89444h125.6822c13.9184-10.96408 13.90462-15.158 14.2701-26.89444-.24051-3.43983-.84387-5.05333-1.86288-7.83426-3.22619-7.54243-8.18021-13.86512-11.9975-19.31056-4.75799-6.16949-7.56647-8.12773-12.20107-14.30403-5.60009-9.41537-5.75093-9.61825-12.9533-21.95134-6.08534-9.981208-10.96016-20.341913-15.04698-28.222122-2.21786-4.591014-4.28029-12.75117-7.00467-19.874311-1.06704-3.40031-2.26286-5.597744-3.79858-11.34109-1.39007-3.61357-1.84955-4.786868-2.8915-8.799113-.9254-3.284579-.85963-4.368874-2.05889-7.653424l-1.41761-7.790178c-.89033-2.880786-3.42349-5.217648-6.05467-5.215383-2.63117.0024-5.2451 2.337478-6.12063 5.215383z" overflow="visible"/><path fill="#a4801f" d="m6.3888333 206.33104 6.9548647 3.80467c2.760352 2.13353 3.882224 2.18961 6.642607 4.32317 3.543287 2.07876 4.477744 2.99968 7.551014 5.23488 4.917084 3.45263 6.643344 5.25079 9.604643 7.14046 5.865909 4.99753 12.990783 9.47614 16.721102 12.85231 6.222449 6.35001 14.531502 14.30543 22.206989 22.98257 9.458022 10.80209 9.650729 10.86544 16.878954 19.08812 4.420255 6.3828 5.374304 9.78364 9.788043 16.16433 3.99774 5.31803 8.46632 12.02574 14.64016 17.43252 2.37222 1.69827 3.72509 2.75605 6.90569 4.09864 11.25288 3.34712 15.39495 4.17095 30.09285-5.584l38.83794-119.53077c-6.12645-16.62527-10.11936-17.90816-21.16844-21.88249-3.3458-.83422-5.06675-.759-8.02648-.64922-8.17022.73756-15.71435 3.49528-22.07287 5.44299-7.33783 2.61865-10.06809 4.68453-17.37428 7.18372-10.68507 2.4165-10.92464 2.49725-24.879815 5.53596-11.373163 2.70315-22.733174 4.13775-31.490593 5.58942-5.05168.69062-13.449775.13047-21.066159.52035-3.563615-.0359-6.023028.4223-11.959838.10806-3.866264.20539-5.124125.2798-9.261971.0309-3.409787-.13487-4.420692-.53247-7.915072-.40691l-7.846971-1.05908c-3.014914-.0435-6.0201947 1.64359-6.8311196 4.14668-.8108465 2.50313.6022518 5.71071 3.0687519 7.43271z" overflow="visible"/><path fill="#a4801f" d="m108.04984 495.25574 5.76761-5.43877c2.88212-1.96596 3.28213-3.0156 6.16425-4.98157 3.07197-2.72749 4.23657-3.33163 7.31207-5.56377 4.80312-3.6095 7.04671-4.69561 9.75899-6.92804 6.56563-4.03448 13.02676-9.42666 17.39044-11.9311 7.9621-3.95563 18.09579-9.39965 28.7201-14.01809 13.19607-5.65703 13.31586-5.82073 23.36972-10.15425 7.43635-2.23151 10.96555-2.08795 18.39786-4.31391 6.29313-2.15872 14.05341-4.3358 21.10338-8.53668 2.3482-1.73133 3.77226-2.6911 6.03201-5.30115 6.66064-9.66781 8.72412-13.35258 3.9885-30.34556l-101.67902-73.87414c-17.70476.68911-20.15873 4.09015-27.35292 13.37031-1.8273 2.92426-2.28756 4.58424-3.09775 7.43302-1.82328 7.99826-1.53181 16.02533-1.64429 22.67453.22297 7.7879 1.34404 11.02292 1.46317 18.74381-1.00364 10.90885-1.00086 11.16164-2.42323 25.37276-.94366 11.65185-3.08972 22.89917-4.41528 31.67657-.90424 5.01783-4.03213 12.83181-6.01493 20.19591-1.1354 3.37809-1.45958 5.85874-3.59301 11.40787-.99942 3.74052-1.31734 4.9598-2.83273 8.81821-1.18195 3.20123-1.87249 4.03978-2.83289 7.40194l-3.432079 7.13564c-.973 2.85392-.297196 6.23344 1.832809 7.77818 2.13004 1.54466 5.61732 1.19194 8.01722-.62172z" overflow="visible"/><path fill="#a4801f" d="m414.24862 487.85313-3.39029-7.16601c-.97911-3.34856-1.85374-4.05335-2.83287-7.40195-1.64471-3.76444-1.8594-5.05873-3.03191-8.67348-1.94861-5.68343-2.28824-8.15285-3.57326-11.42222-1.80814-7.49099-4.93983-15.30215-5.97326-20.22615-1.30161-8.79473-3.34771-20.11475-4.45702-31.64624-1.30238-14.29835-1.42105-14.46289-2.43564-25.36381.17566-7.76196 1.40278-11.07406 1.58247-18.83048-.10837-6.65219.21916-14.7054-1.59756-22.70847-.92095-2.76828-1.39369-4.41924-3.17769-7.37494-7.1364-9.32216-10.00316-12.4233-27.62782-13.17058l-101.679 73.87405c-4.81567 17.05117-2.33942 20.43602 4.26342 30.1458 2.21648 2.64151 3.65297 3.59221 6.11196 5.24308 7.04338 4.20564 14.76766 6.40893 21.05665 8.57064 7.47563 2.19453 10.89875 2.128 18.27856 4.4006 10.06479 4.32554 10.30608 4.40101 23.38215 10.14529 10.78995 4.4981 20.82363 10.01472 28.7618 13.98777 4.49284 2.41059 10.95778 7.80003 17.34874 11.96141 2.86188 2.12374 5.12097 3.1986 9.73924 6.94239 3.24859 2.10638 4.30995 2.78553 7.51123 5.41907 2.67929 2.11334 3.26343 3.02922 6.16423 4.98157l5.72585 5.46913c2.41358 1.80726 5.83652 2.20889 7.96385.6605 2.12728-1.54847 2.86945-4.97406 1.88617-7.81696z" overflow="visible"/><path fill="#a4801f" d="m501.8289 194.35331-7.86294 1.00995c-3.48723-.10357-4.42781.51048-7.91507.40691-4.08845.40095-5.38574.20517-9.18588.20325-6.00743.0969-8.46094-.34311-11.9674-.13127-7.68312-.59522-16.07973-.0306-21.08209-.56937-8.76654-1.47984-20.16477-3.03198-31.47467-5.5404-14.00096-3.1798-14.1941-3.1178-24.87501-5.52142-7.32779-2.56564-10.09859-4.7562-17.41986-7.32396-6.3601-1.95257-13.91795-4.75266-22.09071-5.49792-2.91739.0204-4.63363-.0402-7.99594.74319-11.07116 3.90639-14.9064 5.67455-21.06344 22.20567l38.83795 119.53089c14.72848 9.84909 18.71287 8.53999 29.98784 5.26084 3.19714-1.29173 4.5452-2.36414 6.87514-4.19264 6.17633-5.39903 10.65871-12.06439 14.658-17.37758 4.39724-6.43161 5.39176-9.70775 9.83361-16.0241 7.22403-8.23552 7.37037-8.44166 16.87418-19.10265 7.61222-8.87186 15.95944-16.70973 22.19105-23.03165 3.68095-3.52803 10.8044-8.01113 16.73704-12.80336 2.90415-2.06555 4.62452-3.88188 9.61219-7.11725 3.00716-2.43869 3.98105-3.23823 7.47495-5.46902 2.83783-1.89511 3.88939-2.16764 6.64259-4.32318l6.97083-3.75553c2.46466-1.73695 3.90436-4.86828 3.08913-7.36997-.81531-2.50167-3.8439-4.26606-6.85149-4.20943z" overflow="visible"/><circle cx="256.05478" cy="279.41898" r="100.02972" fill="#d3bc5f" stroke="#f3f0f2" stroke-width="16.5884"/></svg>