<svg xmlns="http://www.w3.org/2000/svg" xml:space="preserve" width="512mm" height="512mm" viewBox="0 0 512 512">
  <defs>
    <path id="a" d="M296.827 509.829h1382.411v936.872H296.827z"/>
  </defs>
  <path d="M512 256a256 256 0 0 1-256 256A256 256 0 0 1 0 256 256 256 0 0 1 256 0a256 256 0 0 1 256 256Z" style="fill:#233f44;stroke-width:.400919;fill-opacity:1"/>
  <path d="M98.695 106h314.61C436.958 106 456 125.042 456 148.695v214.61C456 386.958 436.958 406 413.305 406H98.695C75.042 406 56 386.958 56 363.305v-214.61C56 125.042 75.042 106 98.695 106Z" style="fill:#00e3b2;stroke-width:2.34111;fill-opacity:1"/>
  <path d="M535.11 666.632q77.734 0 128.124 18.75 50.782 18.75 75.391 56.64 24.61 37.89 24.61 95.703 0 39.063-14.844 68.36-14.844 29.297-39.063 49.61-24.219 20.312-52.344 33.202l167.97 248.828H690.577l-136.328-219.14h-64.453v219.14H368.703V666.632Zm-8.594 99.218h-36.72v154.297h39.063q60.157 0 85.938-19.922 26.172-20.312 26.172-59.375 0-40.625-28.125-57.812-27.735-17.188-86.328-17.188zm818.359-99.218-194.14 571.093h-132.032l-193.75-571.093H947.22l107.422 339.843q2.734 8.594 8.984 32.422 6.25 23.438 12.5 50 6.64 26.172 8.984 43.36 2.344-17.188 8.204-43.36 6.25-26.172 12.109-49.61 6.25-23.827 8.984-32.812l108.203-339.843z" aria-label="RV" style="font-weight:700;font-size:800px;font-family:&quot;Open Sans&quot;;-inkscape-font-specification:&quot;Open Sans Bold&quot;;white-space:pre;shape-inside:url(#a);display:inline;stroke-width:7.55906" transform="translate(-22.708 -53.738) scale(.3253)"/>
</svg>
